<svg height="1550" width="1050" xmlns="http://www.w3.org/2000/svg">
<polyline points="315.00,315.00 350.00,315.00 350.00,350.00 315.00,350.00 315.00,315.00 " style="fill:white;stroke:black;stroke-width:1.0"/>
<polyline points="245.00,350.00 280.00,350.00 280.00,385.00 245.00,385.00 245.00,350.00 " style="fill:white;stroke:black;stroke-width:1.0"/>
<polyline points="280.00,350.00 315.00,350.00 315.00,385.00 280.00,385.00 280.00,350.00 " style="fill:white;stroke:black;stroke-width:1.0"/>
<polyline points="315.00,350.00 350.00,350.00 350.00,385.00 315.00,385.00 315.00,350.00 " style="fill:white;stroke:black;stroke-width:1.0"/>
<polyline points="350.00,350.00 385.00,350.00 385.00,385.00 350.00,385.00 350.00,350.00 " style="fill:white;stroke:black;stroke-width:1.0"/>
<polyline points="385.00,350.00 420.00,350.00 420.00,385.00 385.00,385.00 385.00,350.00 " style="fill:white;stroke:black;stroke-width:1.0"/>
<polyline points="315.00,385.00 350.00,385.00 350.00,420.00 315.00,420.00 315.00,385.00 " style="fill:white;stroke:black;stroke-width:1.0"/>
<polyline points="210.00,420.00 245.00,420.00 245.00,455.00 210.00,455.00 210.00,420.00 " style="fill:white;stroke:black;stroke-width:1.0"/>
<polyline points="245.00,420.00 280.00,420.00 280.00,455.00 245.00,455.00 245.00,420.00 " style="fill:white;stroke:black;stroke-width:1.0"/>
<polyline points="280.00,420.00 315.00,420.00 315.00,455.00 280.00,455.00 280.00,420.00 " style="fill:white;stroke:black;stroke-width:1.0"/>
<polyline points="315.00,420.00 350.00,420.00 350.00,455.00 315.00,455.00 315.00,420.00 " style="fill:white;stroke:black;stroke-width:1.0"/>
<polyline points="350.00,420.00 385.00,420.00 385.00,455.00 350.00,455.00 350.00,420.00 " style="fill:white;stroke:black;stroke-width:1.0"/>
<polyline points="385.00,420.00 420.00,420.00 420.00,455.00 385.00,455.00 385.00,420.00 " style="fill:white;stroke:black;stroke-width:1.0"/>
<polyline points="315.00,455.00 350.00,455.00 350.00,490.00 315.00,490.00 315.00,455.00 " style="fill:white;stroke:black;stroke-width:1.0"/>
<polyline points="385.00,455.00 420.00,455.00 420.00,490.00 385.00,490.00 385.00,455.00 " style="fill:white;stroke:black;stroke-width:1.0"/>
<polyline points="105.00,490.00 140.00,490.00 140.00,525.00 105.00,525.00 105.00,490.00 " style="fill:white;stroke:black;stroke-width:1.0"/>
<polyline points="140.00,490.00 175.00,490.00 175.00,525.00 140.00,525.00 140.00,490.00 " style="fill:white;stroke:black;stroke-width:1.0"/>
<polyline points="175.00,490.00 210.00,490.00 210.00,525.00 175.00,525.00 175.00,490.00 " style="fill:white;stroke:black;stroke-width:1.0"/>
<polyline points="210.00,490.00 245.00,490.00 245.00,525.00 210.00,525.00 210.00,490.00 " style="fill:white;stroke:black;stroke-width:1.0"/>
<polyline points="245.00,490.00 280.00,490.00 280.00,525.00 245.00,525.00 245.00,490.00 " style="fill:white;stroke:black;stroke-width:1.0"/>
<polyline points="280.00,490.00 315.00,490.00 315.00,525.00 280.00,525.00 280.00,490.00 " style="fill:white;stroke:black;stroke-width:1.0"/>
<polyline points="315.00,490.00 350.00,490.00 350.00,525.00 315.00,525.00 315.00,490.00 " style="fill:white;stroke:black;stroke-width:1.0"/>
<polyline points="385.00,490.00 420.00,490.00 420.00,525.00 385.00,525.00 385.00,490.00 " style="fill:white;stroke:black;stroke-width:1.0"/>
<polyline points="385.00,525.00 420.00,525.00 420.00,560.00 385.00,560.00 385.00,525.00 " style="fill:white;stroke:black;stroke-width:1.0"/>
<polyline points="385.00,560.00 420.00,560.00 420.00,595.00 385.00,595.00 385.00,560.00 " style="fill:white;stroke:black;stroke-width:1.0"/>
<polyline points="455.00,560.00 490.00,560.00 490.00,595.00 455.00,595.00 455.00,560.00 " style="fill:white;stroke:black;stroke-width:1.0"/>
<polyline points="315.00,595.00 350.00,595.00 350.00,630.00 315.00,630.00 315.00,595.00 " style="fill:white;stroke:black;stroke-width:1.0"/>
<polyline points="350.00,595.00 385.00,595.00 385.00,630.00 350.00,630.00 350.00,595.00 " style="fill:white;stroke:black;stroke-width:1.0"/>
<polyline points="385.00,595.00 420.00,595.00 420.00,630.00 385.00,630.00 385.00,595.00 " style="fill:white;stroke:black;stroke-width:1.0"/>
<polyline points="420.00,595.00 455.00,595.00 455.00,630.00 420.00,630.00 420.00,595.00 " style="fill:white;stroke:black;stroke-width:1.0"/>
<polyline points="455.00,595.00 490.00,595.00 490.00,630.00 455.00,630.00 455.00,595.00 " style="fill:white;stroke:black;stroke-width:1.0"/>
<polyline points="490.00,595.00 525.00,595.00 525.00,630.00 490.00,630.00 490.00,595.00 " style="fill:white;stroke:black;stroke-width:1.0"/>
<polyline points="525.00,595.00 560.00,595.00 560.00,630.00 525.00,630.00 525.00,595.00 " style="fill:white;stroke:black;stroke-width:1.0"/>
<polyline points="245.00,630.00 280.00,630.00 280.00,665.00 245.00,665.00 245.00,630.00 " style="fill:white;stroke:black;stroke-width:1.0"/>
<polyline points="385.00,630.00 420.00,630.00 420.00,665.00 385.00,665.00 385.00,630.00 " style="fill:white;stroke:black;stroke-width:1.0"/>
<polyline points="455.00,630.00 490.00,630.00 490.00,665.00 455.00,665.00 455.00,630.00 " style="fill:white;stroke:black;stroke-width:1.0"/>
<polyline points="140.00,665.00 175.00,665.00 175.00,700.00 140.00,700.00 140.00,665.00 " style="fill:white;stroke:black;stroke-width:1.0"/>
<polyline points="245.00,665.00 280.00,665.00 280.00,700.00 245.00,700.00 245.00,665.00 " style="fill:white;stroke:black;stroke-width:1.0"/>
<polyline points="455.00,665.00 490.00,665.00 490.00,700.00 455.00,700.00 455.00,665.00 " style="fill:white;stroke:black;stroke-width:1.0"/>
<polyline points="140.00,700.00 175.00,700.00 175.00,735.00 140.00,735.00 140.00,700.00 " style="fill:white;stroke:black;stroke-width:1.0"/>
<polyline points="245.00,700.00 280.00,700.00 280.00,735.00 245.00,735.00 245.00,700.00 " style="fill:white;stroke:black;stroke-width:1.0"/>
<polyline points="280.00,700.00 315.00,700.00 315.00,735.00 280.00,735.00 280.00,700.00 " style="fill:white;stroke:black;stroke-width:1.0"/>
<polyline points="315.00,700.00 350.00,700.00 350.00,735.00 315.00,735.00 315.00,700.00 " style="fill:white;stroke:black;stroke-width:1.0"/>
<polyline points="350.00,700.00 385.00,700.00 385.00,735.00 350.00,735.00 350.00,700.00 " style="fill:white;stroke:black;stroke-width:1.0"/>
<polyline points="385.00,700.00 420.00,700.00 420.00,735.00 385.00,735.00 385.00,700.00 " style="fill:white;stroke:black;stroke-width:1.0"/>
<polyline points="420.00,700.00 455.00,700.00 455.00,735.00 420.00,735.00 420.00,700.00 " style="fill:white;stroke:black;stroke-width:1.0"/>
<polyline points="455.00,700.00 490.00,700.00 490.00,735.00 455.00,735.00 455.00,700.00 " style="fill:white;stroke:black;stroke-width:1.0"/>
<polyline points="490.00,700.00 525.00,700.00 525.00,735.00 490.00,735.00 490.00,700.00 " style="fill:white;stroke:black;stroke-width:1.0"/>
<polyline points="140.00,735.00 175.00,735.00 175.00,770.00 140.00,770.00 140.00,735.00 " style="fill:white;stroke:black;stroke-width:1.0"/>
<polyline points="245.00,735.00 280.00,735.00 280.00,770.00 245.00,770.00 245.00,735.00 " style="fill:white;stroke:black;stroke-width:1.0"/>
<polyline points="315.00,735.00 350.00,735.00 350.00,770.00 315.00,770.00 315.00,735.00 " style="fill:white;stroke:black;stroke-width:1.0"/>
<polyline points="140.00,770.00 175.00,770.00 175.00,805.00 140.00,805.00 140.00,770.00 " style="fill:white;stroke:black;stroke-width:1.0"/>
<polyline points="245.00,770.00 280.00,770.00 280.00,805.00 245.00,805.00 245.00,770.00 " style="fill:white;stroke:black;stroke-width:1.0"/>
<polyline points="140.00,805.00 175.00,805.00 175.00,840.00 140.00,840.00 140.00,805.00 " style="fill:white;stroke:black;stroke-width:1.0"/>
<polyline points="245.00,805.00 280.00,805.00 280.00,840.00 245.00,840.00 245.00,805.00 " style="fill:white;stroke:black;stroke-width:1.0"/>
<polyline points="140.00,840.00 175.00,840.00 175.00,875.00 140.00,875.00 140.00,840.00 " style="fill:white;stroke:black;stroke-width:1.0"/>
<polyline points="245.00,840.00 280.00,840.00 280.00,875.00 245.00,875.00 245.00,840.00 " style="fill:white;stroke:black;stroke-width:1.0"/>
<polyline points="35.00,875.00 70.00,875.00 70.00,910.00 35.00,910.00 35.00,875.00 " style="fill:white;stroke:black;stroke-width:1.0"/>
<polyline points="70.00,875.00 105.00,875.00 105.00,910.00 70.00,910.00 70.00,875.00 " style="fill:white;stroke:black;stroke-width:1.0"/>
<polyline points="105.00,875.00 140.00,875.00 140.00,910.00 105.00,910.00 105.00,875.00 " style="fill:white;stroke:black;stroke-width:1.0"/>
<polyline points="140.00,875.00 175.00,875.00 175.00,910.00 140.00,910.00 140.00,875.00 " style="fill:white;stroke:black;stroke-width:1.0"/>
<polyline points="175.00,875.00 210.00,875.00 210.00,910.00 175.00,910.00 175.00,875.00 " style="fill:white;stroke:black;stroke-width:1.0"/>
<polyline points="210.00,875.00 245.00,875.00 245.00,910.00 210.00,910.00 210.00,875.00 " style="fill:white;stroke:black;stroke-width:1.0"/>
<polyline points="245.00,875.00 280.00,875.00 280.00,910.00 245.00,910.00 245.00,875.00 " style="fill:white;stroke:black;stroke-width:1.0"/>
<polyline points="280.00,875.00 315.00,875.00 315.00,910.00 280.00,910.00 280.00,875.00 " style="fill:white;stroke:black;stroke-width:1.0"/>
<polyline points="315.00,875.00 350.00,875.00 350.00,910.00 315.00,910.00 315.00,875.00 " style="fill:white;stroke:black;stroke-width:1.0"/>
<polyline points="350.00,875.00 385.00,875.00 385.00,910.00 350.00,910.00 350.00,875.00 " style="fill:white;stroke:black;stroke-width:1.0"/>
<polyline points="140.00,910.00 175.00,910.00 175.00,945.00 140.00,945.00 140.00,910.00 " style="fill:white;stroke:black;stroke-width:1.0"/>
<polyline points="140.00,945.00 175.00,945.00 175.00,980.00 140.00,980.00 140.00,945.00 " style="fill:white;stroke:black;stroke-width:1.0"/>
<polyline points="140.00,980.00 175.00,980.00 175.00,1015.00 140.00,1015.00 140.00,980.00 " style="fill:white;stroke:black;stroke-width:1.0"/>
<text x="458" y="573" fill="black">5</text><text x="248" y="713" fill="black">8</text><text x="318" y="713" fill="black">2</text><text x="318" y="608" fill="black">7</text><text x="388" y="433" fill="black">7</text><text x="213" y="433" fill="black">6</text><text x="318" y="328" fill="black">6</text><text x="248" y="643" fill="black">8</text><text x="248" y="363" fill="black">5</text><text x="38" y="888" fill="black">10</text><text x="143" y="678" fill="black">10</text><text x="108" y="503" fill="black">7</text><text x="20" y="1079" font-size="2em" fill="black">2 letter words:</text><text x="20" y="1108" font-size="1.8em" fill="black">nc</text><text x="20" y="1166" font-size="2em" fill="black">5 letter words:</text><text x="20" y="1195" font-size="1.8em" fill="black">flour</text><text x="20" y="1224" font-size="1.8em" fill="black">hours</text><text x="20" y="1282" font-size="2em" fill="black">6 letter words:</text><text x="20" y="1311" font-size="1.8em" fill="black">broker</text><text x="20" y="1340" font-size="1.8em" fill="black">turkey</text><text x="270" y="1079" font-size="2em" fill="black">7 letter words:</text><text x="270" y="1108" font-size="1.8em" fill="black">couples</text><text x="270" y="1137" font-size="1.8em" fill="black">revenue</text><text x="270" y="1166" font-size="1.8em" fill="black">nursery</text><text x="270" y="1224" font-size="2em" fill="black">8 letter words:</text><text x="270" y="1253" font-size="1.8em" fill="black">senators</text><text x="270" y="1282" font-size="1.8em" fill="black">ensemble</text><text x="520" y="1079" font-size="2em" fill="black">10 letter words:</text><text x="520" y="1108" font-size="1.8em" fill="black">multimedia</text><text x="520" y="1137" font-size="1.8em" fill="black">completing</text></svg>
