<svg height="1550" width="1050" xmlns="http://www.w3.org/2000/svg">
<polyline points="70.00,210.00 105.00,210.00 105.00,245.00 70.00,245.00 70.00,210.00 " style="fill:white;stroke:black;stroke-width:1.0"/>
<polyline points="490.00,210.00 525.00,210.00 525.00,245.00 490.00,245.00 490.00,210.00 " style="fill:white;stroke:black;stroke-width:1.0"/>
<polyline points="70.00,245.00 105.00,245.00 105.00,280.00 70.00,280.00 70.00,245.00 " style="fill:white;stroke:black;stroke-width:1.0"/>
<polyline points="490.00,245.00 525.00,245.00 525.00,280.00 490.00,280.00 490.00,245.00 " style="fill:white;stroke:black;stroke-width:1.0"/>
<polyline points="70.00,280.00 105.00,280.00 105.00,315.00 70.00,315.00 70.00,280.00 " style="fill:white;stroke:black;stroke-width:1.0"/>
<polyline points="105.00,280.00 140.00,280.00 140.00,315.00 105.00,315.00 105.00,280.00 " style="fill:white;stroke:black;stroke-width:1.0"/>
<polyline points="140.00,280.00 175.00,280.00 175.00,315.00 140.00,315.00 140.00,280.00 " style="fill:white;stroke:black;stroke-width:1.0"/>
<polyline points="175.00,280.00 210.00,280.00 210.00,315.00 175.00,315.00 175.00,280.00 " style="fill:white;stroke:black;stroke-width:1.0"/>
<polyline points="210.00,280.00 245.00,280.00 245.00,315.00 210.00,315.00 210.00,280.00 " style="fill:white;stroke:black;stroke-width:1.0"/>
<polyline points="245.00,280.00 280.00,280.00 280.00,315.00 245.00,315.00 245.00,280.00 " style="fill:white;stroke:black;stroke-width:1.0"/>
<polyline points="280.00,280.00 315.00,280.00 315.00,315.00 280.00,315.00 280.00,280.00 " style="fill:white;stroke:black;stroke-width:1.0"/>
<polyline points="315.00,280.00 350.00,280.00 350.00,315.00 315.00,315.00 315.00,280.00 " style="fill:white;stroke:black;stroke-width:1.0"/>
<polyline points="490.00,280.00 525.00,280.00 525.00,315.00 490.00,315.00 490.00,280.00 " style="fill:white;stroke:black;stroke-width:1.0"/>
<polyline points="70.00,315.00 105.00,315.00 105.00,350.00 70.00,350.00 70.00,315.00 " style="fill:white;stroke:black;stroke-width:1.0"/>
<polyline points="490.00,315.00 525.00,315.00 525.00,350.00 490.00,350.00 490.00,315.00 " style="fill:white;stroke:black;stroke-width:1.0"/>
<polyline points="70.00,350.00 105.00,350.00 105.00,385.00 70.00,385.00 70.00,350.00 " style="fill:white;stroke:black;stroke-width:1.0"/>
<polyline points="140.00,350.00 175.00,350.00 175.00,385.00 140.00,385.00 140.00,350.00 " style="fill:white;stroke:black;stroke-width:1.0"/>
<polyline points="280.00,350.00 315.00,350.00 315.00,385.00 280.00,385.00 280.00,350.00 " style="fill:white;stroke:black;stroke-width:1.0"/>
<polyline points="315.00,350.00 350.00,350.00 350.00,385.00 315.00,385.00 315.00,350.00 " style="fill:white;stroke:black;stroke-width:1.0"/>
<polyline points="350.00,350.00 385.00,350.00 385.00,385.00 350.00,385.00 350.00,350.00 " style="fill:white;stroke:black;stroke-width:1.0"/>
<polyline points="385.00,350.00 420.00,350.00 420.00,385.00 385.00,385.00 385.00,350.00 " style="fill:white;stroke:black;stroke-width:1.0"/>
<polyline points="420.00,350.00 455.00,350.00 455.00,385.00 420.00,385.00 420.00,350.00 " style="fill:white;stroke:black;stroke-width:1.0"/>
<polyline points="455.00,350.00 490.00,350.00 490.00,385.00 455.00,385.00 455.00,350.00 " style="fill:white;stroke:black;stroke-width:1.0"/>
<polyline points="490.00,350.00 525.00,350.00 525.00,385.00 490.00,385.00 490.00,350.00 " style="fill:white;stroke:black;stroke-width:1.0"/>
<polyline points="70.00,385.00 105.00,385.00 105.00,420.00 70.00,420.00 70.00,385.00 " style="fill:white;stroke:black;stroke-width:1.0"/>
<polyline points="140.00,385.00 175.00,385.00 175.00,420.00 140.00,420.00 140.00,385.00 " style="fill:white;stroke:black;stroke-width:1.0"/>
<polyline points="385.00,385.00 420.00,385.00 420.00,420.00 385.00,420.00 385.00,385.00 " style="fill:white;stroke:black;stroke-width:1.0"/>
<polyline points="490.00,385.00 525.00,385.00 525.00,420.00 490.00,420.00 490.00,385.00 " style="fill:white;stroke:black;stroke-width:1.0"/>
<polyline points="35.00,420.00 70.00,420.00 70.00,455.00 35.00,455.00 35.00,420.00 " style="fill:white;stroke:black;stroke-width:1.0"/>
<polyline points="70.00,420.00 105.00,420.00 105.00,455.00 70.00,455.00 70.00,420.00 " style="fill:white;stroke:black;stroke-width:1.0"/>
<polyline points="105.00,420.00 140.00,420.00 140.00,455.00 105.00,455.00 105.00,420.00 " style="fill:white;stroke:black;stroke-width:1.0"/>
<polyline points="140.00,420.00 175.00,420.00 175.00,455.00 140.00,455.00 140.00,420.00 " style="fill:white;stroke:black;stroke-width:1.0"/>
<polyline points="175.00,420.00 210.00,420.00 210.00,455.00 175.00,455.00 175.00,420.00 " style="fill:white;stroke:black;stroke-width:1.0"/>
<polyline points="210.00,420.00 245.00,420.00 245.00,455.00 210.00,455.00 210.00,420.00 " style="fill:white;stroke:black;stroke-width:1.0"/>
<polyline points="245.00,420.00 280.00,420.00 280.00,455.00 245.00,455.00 245.00,420.00 " style="fill:white;stroke:black;stroke-width:1.0"/>
<polyline points="280.00,420.00 315.00,420.00 315.00,455.00 280.00,455.00 280.00,420.00 " style="fill:white;stroke:black;stroke-width:1.0"/>
<polyline points="315.00,420.00 350.00,420.00 350.00,455.00 315.00,455.00 315.00,420.00 " style="fill:white;stroke:black;stroke-width:1.0"/>
<polyline points="350.00,420.00 385.00,420.00 385.00,455.00 350.00,455.00 350.00,420.00 " style="fill:white;stroke:black;stroke-width:1.0"/>
<polyline points="385.00,420.00 420.00,420.00 420.00,455.00 385.00,455.00 385.00,420.00 " style="fill:white;stroke:black;stroke-width:1.0"/>
<polyline points="420.00,420.00 455.00,420.00 455.00,455.00 420.00,455.00 420.00,420.00 " style="fill:white;stroke:black;stroke-width:1.0"/>
<polyline points="70.00,455.00 105.00,455.00 105.00,490.00 70.00,490.00 70.00,455.00 " style="fill:white;stroke:black;stroke-width:1.0"/>
<polyline points="140.00,455.00 175.00,455.00 175.00,490.00 140.00,490.00 140.00,455.00 " style="fill:white;stroke:black;stroke-width:1.0"/>
<polyline points="210.00,455.00 245.00,455.00 245.00,490.00 210.00,490.00 210.00,455.00 " style="fill:white;stroke:black;stroke-width:1.0"/>
<polyline points="385.00,455.00 420.00,455.00 420.00,490.00 385.00,490.00 385.00,455.00 " style="fill:white;stroke:black;stroke-width:1.0"/>
<polyline points="490.00,455.00 525.00,455.00 525.00,490.00 490.00,490.00 490.00,455.00 " style="fill:white;stroke:black;stroke-width:1.0"/>
<polyline points="70.00,490.00 105.00,490.00 105.00,525.00 70.00,525.00 70.00,490.00 " style="fill:white;stroke:black;stroke-width:1.0"/>
<polyline points="210.00,490.00 245.00,490.00 245.00,525.00 210.00,525.00 210.00,490.00 " style="fill:white;stroke:black;stroke-width:1.0"/>
<polyline points="385.00,490.00 420.00,490.00 420.00,525.00 385.00,525.00 385.00,490.00 " style="fill:white;stroke:black;stroke-width:1.0"/>
<polyline points="490.00,490.00 525.00,490.00 525.00,525.00 490.00,525.00 490.00,490.00 " style="fill:white;stroke:black;stroke-width:1.0"/>
<polyline points="525.00,490.00 560.00,490.00 560.00,525.00 525.00,525.00 525.00,490.00 " style="fill:white;stroke:black;stroke-width:1.0"/>
<polyline points="560.00,490.00 595.00,490.00 595.00,525.00 560.00,525.00 560.00,490.00 " style="fill:white;stroke:black;stroke-width:1.0"/>
<polyline points="595.00,490.00 630.00,490.00 630.00,525.00 595.00,525.00 595.00,490.00 " style="fill:white;stroke:black;stroke-width:1.0"/>
<polyline points="630.00,490.00 665.00,490.00 665.00,525.00 630.00,525.00 630.00,490.00 " style="fill:white;stroke:black;stroke-width:1.0"/>
<polyline points="70.00,525.00 105.00,525.00 105.00,560.00 70.00,560.00 70.00,525.00 " style="fill:white;stroke:black;stroke-width:1.0"/>
<polyline points="210.00,525.00 245.00,525.00 245.00,560.00 210.00,560.00 210.00,525.00 " style="fill:white;stroke:black;stroke-width:1.0"/>
<polyline points="315.00,525.00 350.00,525.00 350.00,560.00 315.00,560.00 315.00,525.00 " style="fill:white;stroke:black;stroke-width:1.0"/>
<polyline points="385.00,525.00 420.00,525.00 420.00,560.00 385.00,560.00 385.00,525.00 " style="fill:white;stroke:black;stroke-width:1.0"/>
<polyline points="490.00,525.00 525.00,525.00 525.00,560.00 490.00,560.00 490.00,525.00 " style="fill:white;stroke:black;stroke-width:1.0"/>
<polyline points="70.00,560.00 105.00,560.00 105.00,595.00 70.00,595.00 70.00,560.00 " style="fill:white;stroke:black;stroke-width:1.0"/>
<polyline points="210.00,560.00 245.00,560.00 245.00,595.00 210.00,595.00 210.00,560.00 " style="fill:white;stroke:black;stroke-width:1.0"/>
<polyline points="280.00,560.00 315.00,560.00 315.00,595.00 280.00,595.00 280.00,560.00 " style="fill:white;stroke:black;stroke-width:1.0"/>
<polyline points="315.00,560.00 350.00,560.00 350.00,595.00 315.00,595.00 315.00,560.00 " style="fill:white;stroke:black;stroke-width:1.0"/>
<polyline points="350.00,560.00 385.00,560.00 385.00,595.00 350.00,595.00 350.00,560.00 " style="fill:white;stroke:black;stroke-width:1.0"/>
<polyline points="385.00,560.00 420.00,560.00 420.00,595.00 385.00,595.00 385.00,560.00 " style="fill:white;stroke:black;stroke-width:1.0"/>
<polyline points="420.00,560.00 455.00,560.00 455.00,595.00 420.00,595.00 420.00,560.00 " style="fill:white;stroke:black;stroke-width:1.0"/>
<polyline points="455.00,560.00 490.00,560.00 490.00,595.00 455.00,595.00 455.00,560.00 " style="fill:white;stroke:black;stroke-width:1.0"/>
<polyline points="490.00,560.00 525.00,560.00 525.00,595.00 490.00,595.00 490.00,560.00 " style="fill:white;stroke:black;stroke-width:1.0"/>
<polyline points="525.00,560.00 560.00,560.00 560.00,595.00 525.00,595.00 525.00,560.00 " style="fill:white;stroke:black;stroke-width:1.0"/>
<polyline points="560.00,560.00 595.00,560.00 595.00,595.00 560.00,595.00 560.00,560.00 " style="fill:white;stroke:black;stroke-width:1.0"/>
<polyline points="595.00,560.00 630.00,560.00 630.00,595.00 595.00,595.00 595.00,560.00 " style="fill:white;stroke:black;stroke-width:1.0"/>
<polyline points="630.00,560.00 665.00,560.00 665.00,595.00 630.00,595.00 630.00,560.00 " style="fill:white;stroke:black;stroke-width:1.0"/>
<polyline points="665.00,560.00 700.00,560.00 700.00,595.00 665.00,595.00 665.00,560.00 " style="fill:white;stroke:black;stroke-width:1.0"/>
<polyline points="210.00,595.00 245.00,595.00 245.00,630.00 210.00,630.00 210.00,595.00 " style="fill:white;stroke:black;stroke-width:1.0"/>
<polyline points="315.00,595.00 350.00,595.00 350.00,630.00 315.00,630.00 315.00,595.00 " style="fill:white;stroke:black;stroke-width:1.0"/>
<polyline points="385.00,595.00 420.00,595.00 420.00,630.00 385.00,630.00 385.00,595.00 " style="fill:white;stroke:black;stroke-width:1.0"/>
<polyline points="315.00,630.00 350.00,630.00 350.00,665.00 315.00,665.00 315.00,630.00 " style="fill:white;stroke:black;stroke-width:1.0"/>
<text x="493" y="468" fill="black">4</text><text x="493" y="503" fill="black">5</text><text x="283" y="573" fill="black">12</text><text x="388" y="363" fill="black">8</text><text x="318" y="538" fill="black">4</text><text x="38" y="433" fill="black">12</text><text x="143" y="363" fill="black">4</text><text x="73" y="223" fill="black">11</text><text x="73" y="293" fill="black">8</text><text x="283" y="363" fill="black">7</text><text x="213" y="433" fill="black">6</text><text x="493" y="223" fill="black">6</text><text x="20" y="1079" font-size="2em" fill="black">4 letter words:</text><text x="20" y="1108" font-size="1.8em" fill="black">java</text><text x="20" y="1137" font-size="1.8em" fill="black">felt</text><text x="20" y="1166" font-size="1.8em" fill="black">sick</text><text x="20" y="1224" font-size="2em" fill="black">5 letter words:</text><text x="20" y="1253" font-size="1.8em" fill="black">adobe</text><text x="270" y="1079" font-size="2em" fill="black">6 letter words:</text><text x="270" y="1108" font-size="1.8em" fill="black">linked</text><text x="270" y="1137" font-size="1.8em" fill="black">thirty</text><text x="270" y="1195" font-size="2em" fill="black">7 letter words:</text><text x="270" y="1224" font-size="1.8em" fill="black">subject</text><text x="270" y="1282" font-size="2em" fill="black">8 letter words:</text><text x="270" y="1311" font-size="1.8em" fill="black">junction</text><text x="270" y="1340" font-size="1.8em" fill="black">moderate</text><text x="520" y="1079" font-size="2em" fill="black">11 letter words:</text><text x="520" y="1108" font-size="1.8em" fill="black">computation</text><text x="520" y="1166" font-size="2em" fill="black">12 letter words:</text><text x="520" y="1195" font-size="1.8em" fill="black">negotiations</text><text x="520" y="1224" font-size="1.8em" fill="black">calculations</text></svg>
